<svg xmlns="http://www.w3.org/2000/svg" xmlns:xlink="http://www.w3.org/1999/xlink" width="180" zoomAndPan="magnify" viewBox="0 0 135 60" height="80" preserveAspectRatio="xMidYMid meet" version="1.0"><defs><g/></defs><g fill="#278f5f" fill-opacity="1"><g transform="translate(58.329246, 34.383096)"><g><path d="M 15.390625 -14.65625 L 15.390625 -11.734375 L 12.46875 -11.734375 L 8.0625 -7.328125 L 12.46875 -2.9375 L 15.390625 -2.9375 L 15.390625 0 L 11.875 0 C 11.457031 0 11.101562 -0.144531 10.8125 -0.4375 L 5.390625 -5.859375 L 3.671875 -5.859375 L 3.671875 0 L 0.734375 0 L 0.734375 -14.65625 L 3.671875 -14.65625 L 3.671875 -8.796875 L 5.390625 -8.796875 L 10.8125 -14.21875 C 11.101562 -14.507812 11.457031 -14.65625 11.875 -14.65625 Z M 15.390625 -14.65625 "/></g></g></g><g fill="#278f5f" fill-opacity="1"><g transform="translate(74.511629, 34.383096)"><g><path d="M 12.46875 0 L 3.671875 0 C 3.128906 0 2.632812 -0.128906 2.1875 -0.390625 C 1.738281 -0.648438 1.382812 -1.003906 1.125 -1.453125 C 0.863281 -1.898438 0.734375 -2.394531 0.734375 -2.9375 L 0.734375 -11.734375 C 0.734375 -12.265625 0.863281 -12.753906 1.125 -13.203125 C 1.382812 -13.648438 1.738281 -14.003906 2.1875 -14.265625 C 2.632812 -14.523438 3.128906 -14.65625 3.671875 -14.65625 L 12.46875 -14.65625 C 13 -14.65625 13.488281 -14.523438 13.9375 -14.265625 C 14.382812 -14.003906 14.738281 -13.648438 15 -13.203125 C 15.257812 -12.753906 15.390625 -12.265625 15.390625 -11.734375 L 15.390625 -2.9375 C 15.390625 -2.40625 15.257812 -1.914062 15 -1.46875 C 14.738281 -1.03125 14.382812 -0.675781 13.9375 -0.40625 C 13.5 -0.132812 13.007812 0 12.46875 0 Z M 3.671875 -11.734375 L 3.671875 -2.9375 L 12.46875 -2.9375 L 12.46875 -11.734375 Z M 3.671875 -11.734375 "/></g></g></g><g fill="#278f5f" fill-opacity="1"><g transform="translate(90.694013, 34.383096)"><g><path d="M 3.671875 -14.65625 L 12.46875 -14.65625 C 13 -14.65625 13.488281 -14.523438 13.9375 -14.265625 C 14.382812 -14.003906 14.738281 -13.648438 15 -13.203125 C 15.257812 -12.753906 15.390625 -12.265625 15.390625 -11.734375 L 15.390625 0 L 12.46875 0 L 12.46875 -5.859375 L 3.671875 -5.859375 L 3.671875 0 L 0.734375 0 L 0.734375 -11.734375 C 0.734375 -12.265625 0.863281 -12.753906 1.125 -13.203125 C 1.382812 -13.648438 1.738281 -14.003906 2.1875 -14.265625 C 2.632812 -14.523438 3.128906 -14.65625 3.671875 -14.65625 Z M 3.671875 -11.734375 L 3.671875 -8.796875 L 12.46875 -8.796875 L 12.46875 -11.734375 Z M 3.671875 -11.734375 "/></g></g></g><g fill="#278f5f" fill-opacity="1"><g transform="translate(106.876394, 34.383096)"><g><path d="M 15.390625 0 L 3.671875 0 C 3.128906 0 2.632812 -0.128906 2.1875 -0.390625 C 1.738281 -0.648438 1.382812 -1.003906 1.125 -1.453125 C 0.863281 -1.898438 0.734375 -2.394531 0.734375 -2.9375 L 0.734375 -14.65625 L 3.671875 -14.65625 L 3.671875 -2.9375 L 15.390625 -2.9375 Z M 15.390625 0 "/></g></g></g><g fill="#278f5f" fill-opacity="1"><g transform="translate(48.290556, 42.386763)"><g><path d="M 3.65625 -3.484375 L 3.65625 -2.796875 L 2.265625 -2.796875 L 2.265625 0 L 1.5625 0 L 1.5625 -2.796875 L 0.171875 -2.796875 L 0.171875 -3.484375 Z M 3.65625 -3.484375 "/></g></g></g><g fill="#278f5f" fill-opacity="1"><g transform="translate(52.14544, 42.386763)"><g><path d="M 3.65625 -2.796875 L 3.65625 -2.09375 C 3.65625 -1.96875 3.625 -1.847656 3.5625 -1.734375 C 3.5 -1.628906 3.414062 -1.546875 3.3125 -1.484375 C 3.207031 -1.421875 3.09375 -1.390625 2.96875 -1.390625 L 2.265625 -1.390625 L 2.96875 -0.703125 L 3.65625 -0.703125 L 3.65625 0 L 2.828125 0 C 2.722656 0 2.640625 -0.0351562 2.578125 -0.109375 L 1.28125 -1.390625 L 0.875 -1.390625 L 0.875 0 L 0.171875 0 L 0.171875 -3.484375 L 2.96875 -3.484375 C 3.09375 -3.484375 3.207031 -3.453125 3.3125 -3.390625 C 3.414062 -3.328125 3.5 -3.242188 3.5625 -3.140625 C 3.625 -3.035156 3.65625 -2.921875 3.65625 -2.796875 Z M 2.96875 -2.796875 L 0.875 -2.796875 L 0.875 -2.09375 L 2.96875 -2.09375 Z M 2.96875 -2.796875 "/></g></g></g><g fill="#278f5f" fill-opacity="1"><g transform="translate(56.000324, 42.386763)"><g><path d="M 0.875 -3.484375 L 2.96875 -3.484375 C 3.09375 -3.484375 3.207031 -3.453125 3.3125 -3.390625 C 3.414062 -3.328125 3.5 -3.242188 3.5625 -3.140625 C 3.625 -3.035156 3.65625 -2.921875 3.65625 -2.796875 L 3.65625 0 L 2.96875 0 L 2.96875 -1.390625 L 0.875 -1.390625 L 0.875 0 L 0.171875 0 L 0.171875 -2.796875 C 0.171875 -2.921875 0.203125 -3.035156 0.265625 -3.140625 C 0.328125 -3.242188 0.410156 -3.328125 0.515625 -3.390625 C 0.628906 -3.453125 0.75 -3.484375 0.875 -3.484375 Z M 0.875 -2.796875 L 0.875 -2.09375 L 2.96875 -2.09375 L 2.96875 -2.796875 Z M 0.875 -2.796875 "/></g></g></g><g fill="#278f5f" fill-opacity="1"><g transform="translate(59.855208, 42.386763)"><g><path d="M 0.875 0 L 0.171875 0 L 0.171875 -3.140625 C 0.171875 -3.234375 0.203125 -3.3125 0.265625 -3.375 C 0.335938 -3.445312 0.421875 -3.484375 0.515625 -3.484375 C 0.617188 -3.484375 0.703125 -3.453125 0.765625 -3.390625 L 2.96875 -1.1875 L 2.96875 -3.484375 L 3.65625 -3.484375 L 3.65625 -0.34375 C 3.65625 -0.25 3.617188 -0.164062 3.546875 -0.09375 C 3.484375 -0.03125 3.40625 0 3.3125 0 C 3.21875 0 3.132812 -0.0351562 3.0625 -0.109375 L 0.875 -2.296875 Z M 0.875 0 "/></g></g></g><g fill="#278f5f" fill-opacity="1"><g transform="translate(63.710092, 42.386763)"><g><path d="M 3.65625 -3.484375 L 3.65625 -2.796875 L 0.875 -2.796875 L 0.875 -2.09375 L 2.96875 -2.09375 C 3.09375 -2.09375 3.207031 -2.0625 3.3125 -2 C 3.414062 -1.9375 3.5 -1.851562 3.5625 -1.75 C 3.625 -1.644531 3.65625 -1.523438 3.65625 -1.390625 L 3.65625 -0.703125 C 3.65625 -0.566406 3.625 -0.445312 3.5625 -0.34375 C 3.5 -0.238281 3.414062 -0.15625 3.3125 -0.09375 C 3.207031 -0.03125 3.09375 0 2.96875 0 L 0.171875 0 L 0.171875 -0.703125 L 2.96875 -0.703125 L 2.96875 -1.390625 L 0.875 -1.390625 C 0.75 -1.390625 0.628906 -1.421875 0.515625 -1.484375 C 0.410156 -1.546875 0.328125 -1.628906 0.265625 -1.734375 C 0.203125 -1.847656 0.171875 -1.96875 0.171875 -2.09375 L 0.171875 -2.796875 C 0.171875 -2.921875 0.203125 -3.035156 0.265625 -3.140625 C 0.328125 -3.242188 0.410156 -3.328125 0.515625 -3.390625 C 0.628906 -3.453125 0.75 -3.484375 0.875 -3.484375 Z M 3.65625 -3.484375 "/></g></g></g><g fill="#278f5f" fill-opacity="1"><g transform="translate(67.564975, 42.386763)"><g><path d="M 2.96875 -3.484375 C 3.09375 -3.484375 3.207031 -3.453125 3.3125 -3.390625 C 3.414062 -3.328125 3.5 -3.242188 3.5625 -3.140625 C 3.625 -3.035156 3.65625 -2.921875 3.65625 -2.796875 L 3.65625 -2.09375 C 3.65625 -1.96875 3.625 -1.847656 3.5625 -1.734375 C 3.5 -1.628906 3.414062 -1.546875 3.3125 -1.484375 C 3.207031 -1.421875 3.09375 -1.390625 2.96875 -1.390625 L 0.875 -1.390625 L 0.875 0 L 0.171875 0 L 0.171875 -3.484375 Z M 0.875 -2.09375 L 2.96875 -2.09375 L 2.96875 -2.796875 L 0.875 -2.796875 Z M 0.875 -2.09375 "/></g></g></g><g fill="#278f5f" fill-opacity="1"><g transform="translate(71.419859, 42.386763)"><g><path d="M 2.96875 0 L 0.875 0 C 0.75 0 0.628906 -0.03125 0.515625 -0.09375 C 0.410156 -0.15625 0.328125 -0.238281 0.265625 -0.34375 C 0.203125 -0.445312 0.171875 -0.566406 0.171875 -0.703125 L 0.171875 -2.796875 C 0.171875 -2.921875 0.203125 -3.035156 0.265625 -3.140625 C 0.328125 -3.242188 0.410156 -3.328125 0.515625 -3.390625 C 0.628906 -3.453125 0.75 -3.484375 0.875 -3.484375 L 2.96875 -3.484375 C 3.09375 -3.484375 3.207031 -3.453125 3.3125 -3.390625 C 3.414062 -3.328125 3.5 -3.242188 3.5625 -3.140625 C 3.625 -3.035156 3.65625 -2.921875 3.65625 -2.796875 L 3.65625 -0.703125 C 3.65625 -0.578125 3.625 -0.457031 3.5625 -0.34375 C 3.5 -0.238281 3.414062 -0.15625 3.3125 -0.09375 C 3.207031 -0.03125 3.09375 0 2.96875 0 Z M 0.875 -2.796875 L 0.875 -0.703125 L 2.96875 -0.703125 L 2.96875 -2.796875 Z M 0.875 -2.796875 "/></g></g></g><g fill="#278f5f" fill-opacity="1"><g transform="translate(75.274742, 42.386763)"><g><path d="M 3.65625 -2.796875 L 3.65625 -2.09375 C 3.65625 -1.96875 3.625 -1.847656 3.5625 -1.734375 C 3.5 -1.628906 3.414062 -1.546875 3.3125 -1.484375 C 3.207031 -1.421875 3.09375 -1.390625 2.96875 -1.390625 L 2.265625 -1.390625 L 2.96875 -0.703125 L 3.65625 -0.703125 L 3.65625 0 L 2.828125 0 C 2.722656 0 2.640625 -0.0351562 2.578125 -0.109375 L 1.28125 -1.390625 L 0.875 -1.390625 L 0.875 0 L 0.171875 0 L 0.171875 -3.484375 L 2.96875 -3.484375 C 3.09375 -3.484375 3.207031 -3.453125 3.3125 -3.390625 C 3.414062 -3.328125 3.5 -3.242188 3.5625 -3.140625 C 3.625 -3.035156 3.65625 -2.921875 3.65625 -2.796875 Z M 2.96875 -2.796875 L 0.875 -2.796875 L 0.875 -2.09375 L 2.96875 -2.09375 Z M 2.96875 -2.796875 "/></g></g></g><g fill="#278f5f" fill-opacity="1"><g transform="translate(79.129627, 42.386763)"><g><path d="M 3.65625 -3.484375 L 3.65625 -2.796875 L 2.265625 -2.796875 L 2.265625 0 L 1.5625 0 L 1.5625 -2.796875 L 0.171875 -2.796875 L 0.171875 -3.484375 Z M 3.65625 -3.484375 "/></g></g></g><g fill="#278f5f" fill-opacity="1"><g transform="translate(82.984512, 42.386763)"><g><path d="M 3.65625 -3.484375 L 3.65625 -2.796875 L 0.875 -2.796875 L 0.875 -2.09375 L 3.65625 -2.09375 L 3.65625 -1.390625 L 0.875 -1.390625 L 0.875 -0.703125 L 3.65625 -0.703125 L 3.65625 0 L 0.875 0 C 0.75 0 0.628906 -0.03125 0.515625 -0.09375 C 0.410156 -0.15625 0.328125 -0.238281 0.265625 -0.34375 C 0.203125 -0.445312 0.171875 -0.566406 0.171875 -0.703125 L 0.171875 -2.796875 C 0.171875 -2.921875 0.203125 -3.035156 0.265625 -3.140625 C 0.328125 -3.242188 0.410156 -3.328125 0.515625 -3.390625 C 0.628906 -3.453125 0.75 -3.484375 0.875 -3.484375 Z M 3.65625 -3.484375 "/></g></g></g><g fill="#278f5f" fill-opacity="1"><g transform="translate(86.839397, 42.386763)"><g/></g></g><g fill="#278f5f" fill-opacity="1"><g transform="translate(88.773391, 42.386763)"><g><path d="M 2.96875 0 L 0.171875 0 L 0.171875 -3.484375 L 2.96875 -3.484375 C 3.09375 -3.484375 3.207031 -3.453125 3.3125 -3.390625 C 3.414062 -3.328125 3.5 -3.242188 3.5625 -3.140625 C 3.625 -3.035156 3.65625 -2.921875 3.65625 -2.796875 L 3.65625 -0.703125 C 3.65625 -0.566406 3.625 -0.445312 3.5625 -0.34375 C 3.5 -0.238281 3.414062 -0.15625 3.3125 -0.09375 C 3.207031 -0.03125 3.09375 0 2.96875 0 Z M 0.875 -2.796875 L 0.875 -0.703125 L 2.96875 -0.703125 L 2.96875 -2.796875 Z M 0.875 -2.796875 "/></g></g></g><g fill="#278f5f" fill-opacity="1"><g transform="translate(92.628276, 42.386763)"><g><path d="M 3.65625 -3.484375 L 3.65625 -2.796875 L 0.875 -2.796875 L 0.875 -2.09375 L 3.65625 -2.09375 L 3.65625 -1.390625 L 0.875 -1.390625 L 0.875 -0.703125 L 3.65625 -0.703125 L 3.65625 0 L 0.875 0 C 0.75 0 0.628906 -0.03125 0.515625 -0.09375 C 0.410156 -0.15625 0.328125 -0.238281 0.265625 -0.34375 C 0.203125 -0.445312 0.171875 -0.566406 0.171875 -0.703125 L 0.171875 -2.796875 C 0.171875 -2.921875 0.203125 -3.035156 0.265625 -3.140625 C 0.328125 -3.242188 0.410156 -3.328125 0.515625 -3.390625 C 0.628906 -3.453125 0.75 -3.484375 0.875 -3.484375 Z M 3.65625 -3.484375 "/></g></g></g><g fill="#278f5f" fill-opacity="1"><g transform="translate(96.483161, 42.386763)"><g/></g></g><g fill="#278f5f" fill-opacity="1"><g transform="translate(98.417152, 42.386763)"><g><path d="M 2.96875 -3.484375 C 3.09375 -3.484375 3.207031 -3.453125 3.3125 -3.390625 C 3.414062 -3.328125 3.5 -3.242188 3.5625 -3.140625 C 3.625 -3.035156 3.65625 -2.921875 3.65625 -2.796875 L 3.65625 -2.09375 C 3.65625 -1.96875 3.625 -1.847656 3.5625 -1.734375 C 3.5 -1.628906 3.414062 -1.546875 3.3125 -1.484375 C 3.207031 -1.421875 3.09375 -1.390625 2.96875 -1.390625 L 0.875 -1.390625 L 0.875 0 L 0.171875 0 L 0.171875 -3.484375 Z M 0.875 -2.09375 L 2.96875 -2.09375 L 2.96875 -2.796875 L 0.875 -2.796875 Z M 0.875 -2.09375 "/></g></g></g><g fill="#278f5f" fill-opacity="1"><g transform="translate(102.272035, 42.386763)"><g><path d="M 0.875 -3.484375 L 2.96875 -3.484375 C 3.09375 -3.484375 3.207031 -3.453125 3.3125 -3.390625 C 3.414062 -3.328125 3.5 -3.242188 3.5625 -3.140625 C 3.625 -3.035156 3.65625 -2.921875 3.65625 -2.796875 L 3.65625 0 L 2.96875 0 L 2.96875 -1.390625 L 0.875 -1.390625 L 0.875 0 L 0.171875 0 L 0.171875 -2.796875 C 0.171875 -2.921875 0.203125 -3.035156 0.265625 -3.140625 C 0.328125 -3.242188 0.410156 -3.328125 0.515625 -3.390625 C 0.628906 -3.453125 0.75 -3.484375 0.875 -3.484375 Z M 0.875 -2.796875 L 0.875 -2.09375 L 2.96875 -2.09375 L 2.96875 -2.796875 Z M 0.875 -2.796875 "/></g></g></g><g fill="#278f5f" fill-opacity="1"><g transform="translate(106.126917, 42.386763)"><g><path d="M 3.65625 -3.484375 L 3.65625 -2.796875 L 0.875 -2.796875 L 0.875 -2.09375 L 2.96875 -2.09375 C 3.09375 -2.09375 3.207031 -2.0625 3.3125 -2 C 3.414062 -1.9375 3.5 -1.851562 3.5625 -1.75 C 3.625 -1.644531 3.65625 -1.523438 3.65625 -1.390625 L 3.65625 -0.703125 C 3.65625 -0.566406 3.625 -0.445312 3.5625 -0.34375 C 3.5 -0.238281 3.414062 -0.15625 3.3125 -0.09375 C 3.207031 -0.03125 3.09375 0 2.96875 0 L 0.171875 0 L 0.171875 -0.703125 L 2.96875 -0.703125 L 2.96875 -1.390625 L 0.875 -1.390625 C 0.75 -1.390625 0.628906 -1.421875 0.515625 -1.484375 C 0.410156 -1.546875 0.328125 -1.628906 0.265625 -1.734375 C 0.203125 -1.847656 0.171875 -1.96875 0.171875 -2.09375 L 0.171875 -2.796875 C 0.171875 -2.921875 0.203125 -3.035156 0.265625 -3.140625 C 0.328125 -3.242188 0.410156 -3.328125 0.515625 -3.390625 C 0.628906 -3.453125 0.75 -3.484375 0.875 -3.484375 Z M 3.65625 -3.484375 "/></g></g></g><g fill="#278f5f" fill-opacity="1"><g transform="translate(109.981799, 42.386763)"><g><path d="M 0.875 -3.484375 L 2.96875 -3.484375 C 3.09375 -3.484375 3.207031 -3.453125 3.3125 -3.390625 C 3.414062 -3.328125 3.5 -3.242188 3.5625 -3.140625 C 3.625 -3.035156 3.65625 -2.921875 3.65625 -2.796875 L 3.65625 0 L 2.96875 0 L 2.96875 -1.390625 L 0.875 -1.390625 L 0.875 0 L 0.171875 0 L 0.171875 -2.796875 C 0.171875 -2.921875 0.203125 -3.035156 0.265625 -3.140625 C 0.328125 -3.242188 0.410156 -3.328125 0.515625 -3.390625 C 0.628906 -3.453125 0.75 -3.484375 0.875 -3.484375 Z M 0.875 -2.796875 L 0.875 -2.09375 L 2.96875 -2.09375 L 2.96875 -2.796875 Z M 0.875 -2.796875 "/></g></g></g><g fill="#278f5f" fill-opacity="1"><g transform="translate(113.836681, 42.386763)"><g><path d="M 2.96875 0 L 0.875 0 C 0.75 0 0.628906 -0.03125 0.515625 -0.09375 C 0.410156 -0.15625 0.328125 -0.238281 0.265625 -0.34375 C 0.203125 -0.445312 0.171875 -0.566406 0.171875 -0.703125 L 0.171875 -1.390625 L 0.875 -1.390625 L 0.875 -0.703125 L 2.96875 -0.703125 L 2.96875 -2.796875 L 1.5625 -2.796875 L 1.5625 -3.484375 L 3.65625 -3.484375 L 3.65625 -0.703125 C 3.65625 -0.578125 3.625 -0.457031 3.5625 -0.34375 C 3.5 -0.238281 3.414062 -0.15625 3.3125 -0.09375 C 3.207031 -0.03125 3.09375 0 2.96875 0 Z M 2.96875 0 "/></g></g></g><g fill="#278f5f" fill-opacity="1"><g transform="translate(117.691563, 42.386763)"><g><path d="M 3.65625 -3.484375 L 3.65625 -2.796875 L 0.875 -2.796875 L 0.875 -2.09375 L 3.65625 -2.09375 L 3.65625 -1.390625 L 0.875 -1.390625 L 0.875 -0.703125 L 3.65625 -0.703125 L 3.65625 0 L 0.875 0 C 0.75 0 0.628906 -0.03125 0.515625 -0.09375 C 0.410156 -0.15625 0.328125 -0.238281 0.265625 -0.34375 C 0.203125 -0.445312 0.171875 -0.566406 0.171875 -0.703125 L 0.171875 -2.796875 C 0.171875 -2.921875 0.203125 -3.035156 0.265625 -3.140625 C 0.328125 -3.242188 0.410156 -3.328125 0.515625 -3.390625 C 0.628906 -3.453125 0.75 -3.484375 0.875 -3.484375 Z M 3.65625 -3.484375 "/></g></g></g><g fill="#278f5f" fill-opacity="1"><g transform="translate(121.546445, 42.386763)"><g><path d="M 3.65625 -2.796875 L 3.65625 -2.09375 C 3.65625 -1.96875 3.625 -1.847656 3.5625 -1.734375 C 3.5 -1.628906 3.414062 -1.546875 3.3125 -1.484375 C 3.207031 -1.421875 3.09375 -1.390625 2.96875 -1.390625 L 2.265625 -1.390625 L 2.96875 -0.703125 L 3.65625 -0.703125 L 3.65625 0 L 2.828125 0 C 2.722656 0 2.640625 -0.0351562 2.578125 -0.109375 L 1.28125 -1.390625 L 0.875 -1.390625 L 0.875 0 L 0.171875 0 L 0.171875 -3.484375 L 2.96875 -3.484375 C 3.09375 -3.484375 3.207031 -3.453125 3.3125 -3.390625 C 3.414062 -3.328125 3.5 -3.242188 3.5625 -3.140625 C 3.625 -3.035156 3.65625 -2.921875 3.65625 -2.796875 Z M 2.96875 -2.796875 L 0.875 -2.796875 L 0.875 -2.09375 L 2.96875 -2.09375 Z M 2.96875 -2.796875 "/></g></g></g><g fill="#278f5f" fill-opacity="1"><g transform="translate(125.401327, 42.386763)"><g><path d="M 2.96875 0 L 0.875 0 C 0.75 0 0.628906 -0.03125 0.515625 -0.09375 C 0.410156 -0.15625 0.328125 -0.238281 0.265625 -0.34375 C 0.203125 -0.445312 0.171875 -0.566406 0.171875 -0.703125 L 0.171875 -2.796875 C 0.171875 -2.921875 0.203125 -3.035156 0.265625 -3.140625 C 0.328125 -3.242188 0.410156 -3.328125 0.515625 -3.390625 C 0.628906 -3.453125 0.75 -3.484375 0.875 -3.484375 L 2.96875 -3.484375 C 3.09375 -3.484375 3.207031 -3.453125 3.3125 -3.390625 C 3.414062 -3.328125 3.5 -3.242188 3.5625 -3.140625 C 3.625 -3.035156 3.65625 -2.921875 3.65625 -2.796875 L 3.65625 -0.703125 C 3.65625 -0.578125 3.625 -0.457031 3.5625 -0.34375 C 3.5 -0.238281 3.414062 -0.15625 3.3125 -0.09375 C 3.207031 -0.03125 3.09375 0 2.96875 0 Z M 0.875 -2.796875 L 0.875 -0.703125 L 2.96875 -0.703125 L 2.96875 -2.796875 Z M 0.875 -2.796875 "/></g></g></g><g fill="#278f5f" fill-opacity="1"><g transform="translate(129.256209, 42.386763)"><g><path d="M 3.65625 -3.484375 L 3.65625 -2.796875 L 0.875 -2.796875 L 0.875 -2.09375 L 2.96875 -2.09375 C 3.09375 -2.09375 3.207031 -2.0625 3.3125 -2 C 3.414062 -1.9375 3.5 -1.851562 3.5625 -1.75 C 3.625 -1.644531 3.65625 -1.523438 3.65625 -1.390625 L 3.65625 -0.703125 C 3.65625 -0.566406 3.625 -0.445312 3.5625 -0.34375 C 3.5 -0.238281 3.414062 -0.15625 3.3125 -0.09375 C 3.207031 -0.03125 3.09375 0 2.96875 0 L 0.171875 0 L 0.171875 -0.703125 L 2.96875 -0.703125 L 2.96875 -1.390625 L 0.875 -1.390625 C 0.75 -1.390625 0.628906 -1.421875 0.515625 -1.484375 C 0.410156 -1.546875 0.328125 -1.628906 0.265625 -1.734375 C 0.203125 -1.847656 0.171875 -1.96875 0.171875 -2.09375 L 0.171875 -2.796875 C 0.171875 -2.921875 0.203125 -3.035156 0.265625 -3.140625 C 0.328125 -3.242188 0.410156 -3.328125 0.515625 -3.390625 C 0.628906 -3.453125 0.75 -3.484375 0.875 -3.484375 Z M 3.65625 -3.484375 "/></g></g></g><path fill="#278f5f" d="M 56.429688 12.96875 C 56.191406 11.410156 55.445312 9.992188 54.640625 8.65625 C 55.058594 8.601562 55.488281 8.574219 55.886719 8.425781 C 54.828125 6.953125 53.25 5.941406 51.585938 5.296875 C 52.277344 5.175781 52.984375 5.109375 53.648438 4.863281 C 53.539062 4.585938 53.296875 4.382812 53.09375 4.171875 C 51.601562 2.761719 49.632812 1.90625 47.605469 1.621094 C 46.527344 1.472656 45.414062 1.425781 44.347656 1.640625 C 44.789062 0.996094 45.414062 0.515625 45.984375 0 C 43.886719 0.0351562 41.824219 0.773438 40.101562 1.960938 C 38.671875 2.9375 37.460938 4.128906 36.464844 5.542969 C 35.828125 5.285156 35.21875 4.964844 34.574219 4.742188 C 32.46875 3.996094 30.304688 3.726562 28.082031 3.941406 C 28.3125 2.882812 28.664062 1.851562 29.03125 0.828125 C 28.847656 0.792969 28.664062 0.78125 28.476562 0.792969 C 27.058594 0.921875 25.734375 1.628906 24.765625 2.652344 C 24.019531 3.417969 23.496094 4.375 23.171875 5.386719 C 22.050781 5.921875 20.878906 6.4375 19.894531 7.210938 C 19.554688 6.789062 19.257812 6.316406 18.890625 5.914062 C 17.121094 3.792969 14.65625 2.183594 11.902344 1.742188 C 12.277344 2.238281 12.757812 2.660156 13.023438 3.234375 C 11.136719 2.6875 9.09375 2.652344 7.214844 3.261719 C 6.109375 3.601562 5.050781 4.144531 4.210938 4.945312 C 4.726562 5.15625 5.296875 5.175781 5.824219 5.359375 C 4.0625 5.945312 2.550781 6.917969 1.292969 8.28125 C 0.785156 8.867188 0.277344 9.484375 0.03125 10.230469 C 0.132812 10.304688 0.222656 10.433594 0.371094 10.414062 C 1.144531 10.386719 1.898438 10.5625 2.664062 10.601562 C 2.359375 11.171875 2.046875 11.742188 1.863281 12.367188 C 1.367188 13.914062 1.023438 15.648438 1.578125 17.222656 C 1.882812 16.964844 2.171875 16.691406 2.441406 16.402344 C 3.003906 18.90625 4.421875 21.320312 6.660156 22.65625 C 6.226562 22.945312 5.761719 23.175781 5.269531 23.347656 C 6.164062 24.523438 7.386719 25.417969 8.734375 26.015625 C 10.078125 26.617188 11.699219 26.9375 13.21875 26.734375 C 13.421875 27.296875 13.585938 27.878906 13.855469 28.421875 C 14.648438 30.09375 15.78125 31.492188 17.25 32.621094 C 16.511719 33.425781 15.867188 34.300781 15.316406 35.246094 C 14.65625 36.386719 14.179688 37.597656 13.882812 38.882812 C 13.53125 40.550781 13.484375 42.335938 14.09375 43.949219 C 13.539062 44.28125 13.023438 44.664062 12.546875 45.097656 C 11.320312 46.257812 10.445312 47.816406 10.214844 49.5 C 10.101562 50.347656 10.113281 51.191406 10.253906 52.035156 C 10.714844 54.824219 12.636719 57.300781 15.207031 58.472656 C 16.75 59.167969 18.347656 59.324219 19.996094 58.941406 C 21.773438 58.5625 23.332031 57.476562 24.507812 56.132812 C 27.03125 57.6875 30.125 58.269531 33.046875 57.789062 C 34.058594 58.65625 35.3125 59.226562 36.59375 59.558594 C 38.371094 60 40.292969 59.75 41.953125 58.976562 C 44.355469 57.910156 46.269531 55.855469 47.265625 53.433594 C 48.1875 51.234375 48.34375 48.753906 47.945312 46.414062 C 47.605469 44.5 46.84375 42.6875 45.828125 41.027344 C 45.339844 40.238281 44.816406 39.460938 44.273438 38.699219 C 44.0625 38.421875 44.152344 38.0625 44.125 37.75 C 44.105469 35.816406 43.546875 33.835938 42.265625 32.363281 C 42.046875 32.109375 41.804688 31.882812 41.539062 31.679688 C 42.097656 31.21875 42.558594 30.648438 42.992188 30.070312 C 44.003906 28.652344 44.75 27.019531 45.019531 25.289062 C 47.03125 25.359375 48.871094 24.824219 50.535156 23.6875 C 50.84375 23.484375 51.132812 23.257812 51.402344 23.003906 C 51.996094 22.453125 52.515625 21.839844 52.964844 21.164062 C 52.480469 21.003906 52.023438 20.785156 51.59375 20.5 C 53.324219 19.277344 54.78125 17.570312 55.480469 15.546875 L 55.664062 14.984375 C 55.933594 15.148438 56.152344 15.371094 56.410156 15.554688 L 56.492188 15.527344 C 56.597656 14.671875 56.574219 13.816406 56.429688 12.96875 Z M 42.496094 37.289062 C 42.503906 37.585938 42.523438 37.878906 42.441406 38.164062 C 42.394531 39.316406 41.941406 40.410156 41.445312 41.433594 C 40.949219 42.457031 40.449219 43.292969 39.558594 43.855469 C 39.632812 43.421875 39.722656 42.742188 39.152344 42.628906 C 38.671875 42.75 38.726562 43.320312 38.628906 43.699219 C 38.210938 45.449219 37.21875 47.105469 35.726562 48.136719 C 34.953125 48.664062 33.976562 49.058594 33.035156 48.792969 C 33.007812 48.222656 33.332031 47.714844 33.339844 47.152344 C 33.28125 47.097656 33.207031 47.078125 33.128906 47.085938 C 33.046875 47.09375 32.984375 47.132812 32.9375 47.199219 C 32.621094 47.519531 32.363281 47.972656 31.886719 48.046875 C 31.140625 48.195312 30.402344 47.519531 30.414062 46.773438 C 30.421875 46.027344 30.671875 45.578125 30.929688 45.035156 C 30.640625 45.226562 30.3125 45.375 30.109375 45.671875 C 29.90625 45.964844 29.878906 46.046875 29.648438 46.074219 C 29.011719 46.1875 28.292969 45.671875 28.265625 45.023438 C 28.746094 43.890625 29.675781 42.925781 30.855469 42.519531 C 31.589844 42.234375 32.429688 42.261719 33.121094 41.855469 C 33.8125 41.453125 34.214844 40.964844 34.601562 40.382812 C 34.871094 39.949219 35.117188 39.472656 35.15625 38.957031 C 35.171875 38.597656 34.988281 38.183594 34.628906 38.0625 C 34.269531 37.941406 33.894531 38.15625 33.875 38.503906 C 33.855469 38.855469 33.847656 39.121094 33.683594 39.378906 C 33.351562 39.941406 32.945312 40.503906 32.363281 40.824219 C 31.785156 41.148438 31.175781 41.175781 30.597656 41.371094 C 29.242188 41.820312 28.128906 42.878906 27.492188 44.152344 C 26.855469 45.421875 26.902344 46.609375 27.152344 47.835938 C 27.355469 48.277344 27.472656 48.746094 27.695312 49.179688 C 28.128906 48.828125 28.550781 48.46875 28.984375 48.121094 C 28.992188 48.367188 29.011719 48.617188 29.03125 48.867188 C 29.09375 49.554688 29.242188 50.230469 29.335938 50.910156 C 30.375 50.53125 31.40625 50.109375 32.402344 49.628906 C 33.222656 50.109375 34.226562 49.988281 35.101562 49.730469 C 36.609375 49.242188 37.808594 48.074219 38.671875 46.773438 C 38.886719 46.5 39.023438 46.140625 39.328125 45.957031 C 41.351562 44.648438 42.605469 42.464844 43.417969 40.253906 C 44.402344 41.664062 45.3125 43.148438 45.882812 44.777344 C 46.953125 47.769531 46.84375 51.261719 45.210938 54.03125 C 44.875 54.613281 44.472656 55.144531 44.003906 55.625 C 42.984375 56.765625 41.621094 57.570312 40.164062 58.019531 C 41.65625 56.90625 42.640625 55.210938 43.09375 53.425781 C 43.1875 53.09375 43.1875 52.753906 43.277344 52.421875 C 43.242188 51.777344 43.167969 51.113281 42.855469 50.542969 C 42.375 49.621094 41.398438 48.949219 40.347656 48.957031 C 39.144531 48.949219 38.082031 49.675781 37.253906 50.496094 C 36.148438 51.636719 35.292969 53.054688 34.914062 54.613281 C 34.667969 55.644531 34.65625 56.824219 35.273438 57.734375 C 34.316406 57.164062 33.523438 56.207031 33.359375 55.082031 C 33.3125 54.601562 33.277344 54.085938 33.488281 53.636719 C 33.5625 53.441406 33.691406 53.222656 33.5625 53.019531 C 33.40625 52.605469 32.835938 52.429688 32.503906 52.734375 C 32.171875 53.039062 32.132812 53.5 31.976562 53.894531 C 31.84375 54.710938 31.910156 55.507812 32.179688 56.289062 C 30.996094 56.429688 29.820312 56.367188 28.65625 56.101562 C 27.492188 55.835938 26.40625 55.378906 25.402344 54.730469 C 25.015625 54.472656 24.601562 54.242188 24.277344 53.902344 C 23.421875 53.25 22.714844 52.421875 22.113281 51.527344 C 21.949219 51.351562 21.882812 51.09375 21.664062 50.964844 C 21.664062 51.113281 21.667969 51.261719 21.671875 51.417969 C 21.882812 52.429688 22.382812 53.359375 22.960938 54.207031 C 23.144531 54.429688 23.3125 54.667969 23.503906 54.878906 C 22.628906 55.828125 21.652344 56.757812 20.429688 57.226562 L 19.988281 57.375 C 20.503906 56.730469 20.640625 55.863281 20.519531 55.0625 C 20.367188 54.125 19.945312 53.328125 19.25 52.679688 C 19.101562 52.523438 18.898438 52.394531 18.816406 52.179688 C 18.292969 50.984375 17.539062 49.859375 16.496094 49.058594 C 15.933594 48.636719 15.214844 48.292969 14.507812 48.488281 C 13.796875 48.679688 13.125 49.546875 13.007812 50.375 C 12.820312 51.683594 13.164062 53 13.679688 54.199219 C 14.195312 55.394531 14.902344 56.4375 15.933594 57.171875 C 14.949219 56.683594 14.113281 55.9375 13.394531 55.117188 C 12.34375 53.839844 11.699219 52.207031 11.746094 50.542969 C 11.75 49.394531 12.066406 48.335938 12.691406 47.375 C 13.21875 46.578125 13.890625 45.933594 14.710938 45.441406 C 14.847656 45.367188 14.996094 45.246094 15.171875 45.292969 L 15.1875 45.382812 C 15.472656 45.484375 15.675781 45.726562 15.945312 45.855469 C 16.210938 45.984375 16.46875 46.066406 16.5625 46.332031 C 17.234375 47.761719 18.253906 49.097656 19.691406 49.8125 C 20.410156 50.164062 21.265625 50.386719 22.039062 50.101562 C 22.1875 50.027344 22.308594 50.164062 22.425781 50.230469 C 23.144531 50.71875 23.9375 51.09375 24.675781 51.546875 C 24.9375 50.671875 25.140625 49.785156 25.292969 48.882812 C 25.6875 49.226562 26.09375 49.554688 26.507812 49.878906 C 26.65625 49.085938 26.855469 48.304688 26.867188 47.492188 C 26.890625 45.984375 26.433594 44.640625 25.496094 43.460938 C 24.996094 42.851562 24.34375 42.363281 23.589844 42.144531 C 23.367188 42.074219 23.191406 41.945312 23.054688 41.761719 C 22.914062 41.578125 22.84375 41.367188 22.84375 41.140625 C 22.824219 40.363281 22.886719 39.597656 23.027344 38.835938 C 23.082031 38.457031 22.777344 38.035156 22.371094 38.082031 C 21.96875 38.128906 21.78125 38.46875 21.691406 38.78125 C 21.523438 39.453125 21.515625 40.152344 21.46875 40.84375 C 21.421875 41.535156 21.664062 42.363281 22.234375 42.851562 C 22.628906 43.21875 23.210938 43.230469 23.660156 43.503906 C 24.296875 43.902344 24.777344 44.4375 25.109375 45.109375 C 25.207031 45.300781 25.089844 45.511719 25.007812 45.6875 C 24.8125 46.066406 24.492188 46.445312 24.039062 46.472656 C 23.589844 46.5 23.3125 46.203125 22.90625 46.269531 C 22.859375 46.535156 23.117188 46.683594 23.273438 46.859375 C 23.625 47.160156 23.800781 47.605469 24.03125 47.992188 C 23.78125 48.488281 23.238281 48.902344 22.65625 48.746094 C 22.234375 48.636719 22.03125 48.210938 21.765625 47.90625 C 21.664062 47.769531 21.453125 47.890625 21.480469 48.046875 C 21.488281 48.441406 21.550781 48.828125 21.535156 49.226562 C 20.464844 49.296875 19.589844 48.542969 18.882812 47.84375 C 17.65625 46.527344 16.707031 44.8125 16.726562 42.972656 C 16.726562 42.769531 16.664062 42.539062 16.441406 42.472656 C 16.21875 42.410156 15.925781 42.574219 15.84375 42.804688 C 15.761719 43.035156 15.796875 43.375 15.816406 43.664062 C 15.355469 43.128906 15.300781 42.371094 15.214844 41.699219 C 15.015625 39.039062 16.128906 36.453125 17.757812 34.386719 C 18.007812 34.074219 18.273438 33.78125 18.542969 33.484375 C 19.289062 34 20.125 34.378906 20.964844 34.738281 C 22.527344 35.410156 24.203125 35.804688 25.882812 36.054688 C 28.1875 36.382812 30.488281 36.328125 32.777344 35.898438 C 35.496094 35.402344 38.140625 34.359375 40.347656 32.695312 C 40.652344 33.015625 41.023438 33.28125 41.28125 33.640625 C 42.070312 34.730469 42.476562 35.945312 42.496094 37.289062 Z M 54.339844 13.722656 C 54.042969 13.933594 54.136719 14.339844 54.054688 14.652344 C 53.75 15.921875 53.078125 17.09375 52.230469 18.078125 C 51.75 18.859375 51.015625 19.46875 50.230469 19.929688 C 49.957031 20.078125 49.699219 20.253906 49.457031 20.453125 C 49.464844 20.648438 49.421875 20.894531 49.632812 21.007812 C 49.84375 21.117188 50.378906 21.292969 50.765625 21.394531 C 49.449219 23.042969 47.265625 24.121094 45.136719 23.761719 C 45.164062 22.25 44.992188 20.761719 44.621094 19.292969 C 44.273438 17.839844 43.664062 16.464844 42.957031 15.160156 C 44.21875 15.304688 45.378906 15.894531 46.410156 16.605469 C 47.042969 17.046875 47.617188 17.582031 48.195312 18.085938 C 47.695312 16.863281 46.960938 15.800781 45.996094 14.902344 C 44.972656 13.914062 43.683594 13.167969 42.273438 12.957031 C 42.164062 12.921875 41.988281 12.957031 41.960938 12.808594 C 41.953125 12.441406 41.972656 12.078125 42.027344 11.714844 C 42.890625 11.585938 43.765625 11.675781 44.632812 11.75 C 45.527344 11.851562 46.402344 12.050781 47.257812 12.339844 C 47.617188 12.460938 47.957031 12.644531 48.335938 12.738281 C 48.160156 12.496094 47.890625 12.367188 47.660156 12.210938 C 46.070312 11.226562 44.261719 10.554688 42.394531 10.351562 C 42.699219 9.625 43.160156 8.980469 43.664062 8.378906 C 44.28125 7.746094 45 7.273438 45.828125 6.960938 C 46.152344 6.871094 46.464844 6.539062 46.328125 6.1875 C 46.1875 5.839844 45.976562 5.773438 45.726562 5.644531 L 45.699219 5.527344 C 45.304688 5.699219 44.878906 5.792969 44.503906 5.996094 C 42.199219 7.148438 40.644531 9.597656 40.488281 12.15625 C 40.242188 11.910156 39.960938 11.855469 39.640625 11.992188 C 39.300781 12.15625 39.199219 12.664062 39.484375 12.929688 C 42.089844 15.8125 43.675781 19.664062 43.589844 23.566406 C 43.582031 25.523438 43.019531 27.304688 41.898438 28.910156 C 40.246094 31.3125 37.640625 32.886719 34.90625 33.789062 C 32.992188 34.40625 31.027344 34.714844 29.011719 34.710938 C 26.976562 34.765625 24.933594 34.445312 22.980469 33.855469 C 21.277344 33.3125 19.617188 32.546875 18.21875 31.421875 C 17.023438 30.484375 16.019531 29.296875 15.363281 27.914062 C 14.460938 26.054688 14.296875 23.925781 14.507812 21.898438 C 14.816406 19.109375 15.785156 16.570312 17.417969 14.285156 C 17.59375 14.035156 17.824219 13.8125 17.933594 13.527344 C 17.96875 13.359375 17.929688 13.203125 17.824219 13.066406 C 17.722656 12.925781 17.582031 12.851562 17.410156 12.839844 C 17.1875 12.773438 17.003906 12.957031 16.792969 12.96875 C 16.378906 10.644531 14.875 8.464844 12.691406 7.46875 C 12.453125 7.339844 12.160156 7.332031 11.964844 7.136719 C 11.625 7.164062 11.21875 7.277344 11.089844 7.625 C 10.960938 7.976562 11.054688 8.179688 11.273438 8.324219 C 11.496094 8.472656 11.992188 8.628906 12.335938 8.832031 C 13.375 9.433594 14.167969 10.269531 14.710938 11.347656 C 12.820312 11.695312 11.007812 12.441406 9.460938 13.585938 C 9.367188 13.65625 9.285156 13.742188 9.222656 13.84375 C 9.726562 13.695312 10.179688 13.417969 10.675781 13.269531 C 12.148438 12.808594 13.6875 12.542969 15.234375 12.625 C 15.308594 13.023438 15.382812 13.425781 15.429688 13.832031 C 13.855469 14.136719 12.492188 15.148438 11.496094 16.382812 C 10.75 17.304688 10.214844 18.390625 9.847656 19.515625 C 11.082031 17.957031 12.675781 16.566406 14.617188 16.007812 C 13.625 17.984375 13.070312 20.167969 12.886719 22.371094 C 12.886719 23.328125 12.851562 24.285156 12.921875 25.234375 C 12.464844 25.371094 11.976562 25.296875 11.496094 25.316406 C 10.070312 25.226562 8.707031 24.597656 7.65625 23.640625 C 7.566406 23.558594 7.5 23.460938 7.453125 23.347656 C 7.875 23.273438 8.355469 23.171875 8.613281 22.792969 C 8.6875 22.582031 8.640625 22.316406 8.429688 22.203125 C 7.859375 21.835938 7.167969 21.605469 6.699219 21.097656 C 6.226562 20.59375 5.648438 19.964844 5.25 19.3125 C 4.550781 18.113281 4.105469 16.828125 3.917969 15.453125 C 3.890625 15.1875 3.6875 14.929688 3.410156 14.902344 C 3.132812 14.875 2.828125 15.058594 2.5625 15.1875 C 2.691406 13.226562 3.695312 11.402344 5.140625 10.101562 C 5.351562 9.890625 5.621094 9.6875 5.703125 9.382812 C 5.777344 8.878906 5.242188 8.472656 4.773438 8.546875 C 3.960938 8.648438 3.199219 8.960938 2.386719 9.0625 C 3.300781 8.363281 4.238281 7.691406 5.296875 7.230469 C 6.355469 6.769531 7.488281 6.382812 8.660156 6.289062 L 8.613281 6.316406 C 8.917969 6.300781 9.257812 6.316406 9.496094 6.105469 C 9.738281 5.894531 9.753906 5.65625 9.8125 5.40625 C 9.265625 4.789062 8.410156 4.59375 7.628906 4.449219 C 9.214844 4.140625 10.785156 4.210938 12.335938 4.667969 C 12.730469 4.78125 13.097656 4.964844 13.496094 5.082031 C 13.636719 5.128906 13.777344 5.128906 13.917969 5.085938 C 14.058594 5.039062 14.171875 4.957031 14.257812 4.835938 C 14.386719 4.585938 14.332031 4.292969 14.339844 4.023438 C 16.171875 5.054688 17.636719 6.457031 18.742188 8.242188 C 18.910156 8.507812 19.046875 8.804688 19.296875 8.996094 C 19.546875 9.191406 19.902344 9.054688 20.125 8.859375 C 21.109375 8.105469 22.207031 7.535156 23.3125 6.980469 C 23.394531 7.339844 23.375 7.847656 23.78125 8.011719 C 24.1875 8.179688 24.453125 7.699219 24.40625 7.359375 C 24.417969 5.453125 25.457031 3.554688 27.152344 2.644531 C 26.527344 3.867188 26.210938 5.269531 26.460938 6.628906 C 26.515625 6.816406 26.609375 7.019531 26.8125 7.0625 C 26.9375 7.09375 27.058594 7.078125 27.171875 7.007812 C 27.28125 6.941406 27.351562 6.839844 27.382812 6.714844 C 27.402344 6.335938 27.402344 5.914062 27.574219 5.570312 C 28.953125 5.402344 30.328125 5.410156 31.703125 5.589844 C 33.246094 5.84375 34.707031 6.351562 36.074219 7.109375 C 36.316406 7.230469 36.5625 7.433594 36.851562 7.347656 C 37.136719 7.265625 37.347656 7 37.511719 6.75 C 38.828125 4.714844 40.585938 3.1875 42.789062 2.171875 C 42.558594 2.46875 42.429688 2.863281 42.558594 3.222656 C 42.644531 3.378906 42.769531 3.484375 42.9375 3.546875 C 43.105469 3.605469 43.269531 3.601562 43.433594 3.535156 C 44.9375 3.09375 46.527344 2.917969 48.074219 3.214844 C 48.933594 3.351562 49.742188 3.675781 50.542969 4.007812 L 50.726562 4.136719 C 49.824219 4.199219 48.894531 4.238281 48.046875 4.585938 C 47.828125 4.660156 47.699219 4.863281 47.496094 4.964844 C 47.46875 5.277344 47.460938 5.65625 47.761719 5.847656 C 48.261719 6.125 48.859375 5.976562 49.394531 6.125 C 50.734375 6.429688 51.964844 6.980469 53.085938 7.773438 C 52.671875 7.992188 52.496094 8.492188 52.496094 8.941406 C 52.496094 9.238281 52.765625 9.414062 52.949219 9.597656 C 54.117188 10.703125 54.828125 12.203125 55.203125 13.75 C 54.9375 13.628906 54.585938 13.5 54.339844 13.722656 Z M 54.339844 13.722656 " fill-opacity="1" fill-rule="nonzero"/><path fill="#278f5f" d="M 34.824219 19.339844 C 35.191406 19.183594 35.496094 18.878906 35.917969 18.871094 C 36.710938 18.742188 37.410156 19.191406 38.113281 19.488281 C 37.6875 18.777344 37.035156 18.144531 36.203125 17.96875 C 35.53125 17.820312 34.75 18.023438 34.335938 18.59375 C 34.097656 18.917969 34.398438 19.476562 34.824219 19.339844 Z M 34.824219 19.339844 " fill-opacity="1" fill-rule="nonzero"/><path fill="#278f5f" d="M 22.011719 19.726562 C 22.371094 19.808594 22.683594 20.222656 23.074219 20.023438 C 23.460938 19.820312 23.359375 19.441406 23.144531 19.230469 C 22.675781 18.742188 21.921875 18.621094 21.285156 18.816406 C 20.492188 19.0625 19.886719 19.71875 19.546875 20.453125 C 20.261719 19.984375 21.121094 19.503906 22.011719 19.726562 Z M 22.011719 19.726562 " fill-opacity="1" fill-rule="nonzero"/><path fill="#278f5f" d="M 37.265625 20.851562 C 36.878906 20.546875 36.445312 20.464844 35.976562 20.601562 C 35.285156 20.8125 34.824219 21.449219 34.585938 22.101562 C 34.214844 23.207031 34.308594 24.523438 35.027344 25.472656 C 35.359375 25.878906 35.828125 26.246094 36.378906 26.199219 C 36.933594 26.15625 37.496094 25.75 37.816406 25.269531 C 38.347656 24.425781 38.503906 23.519531 38.285156 22.542969 C 38.15625 21.890625 37.808594 21.253906 37.265625 20.851562 Z M 37.28125 22.296875 C 37.207031 22.859375 36.453125 23.089844 36.039062 22.730469 C 35.625 22.371094 35.671875 21.714844 36.140625 21.496094 C 36.609375 21.273438 37.382812 21.699219 37.28125 22.296875 Z M 37.28125 22.296875 " fill-opacity="1" fill-rule="nonzero"/><path fill="#278f5f" d="M 21.332031 21.421875 C 20.511719 21.632812 20.015625 22.445312 19.832031 23.226562 C 19.582031 24.230469 19.703125 25.363281 20.320312 26.210938 C 20.632812 26.644531 21.09375 27.03125 21.652344 27.03125 C 22.214844 27.03125 22.785156 26.644531 23.109375 26.15625 C 23.929688 24.9375 23.910156 23.152344 22.933594 22.027344 C 22.546875 21.558594 21.921875 21.253906 21.332031 21.421875 Z M 22.527344 23.105469 C 22.484375 23.667969 21.710938 23.925781 21.304688 23.546875 C 20.898438 23.171875 21 22.5 21.480469 22.296875 C 21.957031 22.09375 22.65625 22.527344 22.527344 23.105469 Z M 22.527344 23.105469 " fill-opacity="1" fill-rule="nonzero"/><path fill="#278f5f" d="M 28 31.230469 C 29.464844 31.449219 31.085938 31.183594 32.234375 30.214844 C 32.863281 29.691406 33.15625 28.890625 33.210938 28.097656 C 33.300781 27.003906 33.191406 25.929688 32.890625 24.875 C 32.632812 23.972656 32.21875 23.089844 31.515625 22.453125 C 30.816406 21.816406 29.566406 21.449219 28.507812 21.625 C 27.722656 21.726562 27.0625 22.070312 26.527344 22.65625 C 25.6875 23.585938 25.355469 24.847656 25.226562 26.0625 C 25.097656 27.277344 25.179688 28.695312 25.753906 29.875 C 26.175781 30.714844 27.125 31.089844 28 31.230469 Z M 27.003906 23.953125 C 27.234375 23.492188 27.519531 22.960938 28.046875 22.792969 C 28.195312 22.742188 28.34375 22.746094 28.488281 22.808594 C 28.636719 22.867188 28.742188 22.972656 28.808594 23.117188 C 29.011719 23.484375 28.800781 23.890625 28.679688 24.25 C 28.21875 25.4375 27.917969 26.707031 27.988281 27.988281 C 28.0625 28.394531 27.777344 28.863281 27.34375 28.851562 C 26.914062 28.84375 26.515625 28.503906 26.5 28.070312 C 26.40625 26.6875 26.46875 25.253906 27.015625 23.953125 Z M 27.003906 23.953125 " fill-opacity="1" fill-rule="nonzero"/><path fill="#278f5f" d="M 33.121094 31.359375 C 32.777344 31.828125 32.464844 32.371094 31.941406 32.667969 C 31.417969 32.960938 30.890625 33.0625 30.429688 32.765625 C 29.96875 32.472656 29.925781 32.132812 29.738281 31.773438 C 29.667969 31.570312 29.351562 31.523438 29.234375 31.707031 C 29.113281 31.890625 29.023438 32.324219 28.863281 32.601562 C 28.707031 32.878906 28.3125 33.171875 27.925781 33.152344 C 27.34375 33.152344 26.820312 32.839844 26.425781 32.445312 C 26.183594 32.222656 26.011719 31.929688 25.714844 31.773438 C 25.625 31.863281 25.457031 31.976562 25.539062 32.132812 C 25.964844 33.089844 26.921875 33.917969 28.019531 33.882812 C 28.679688 33.871094 29.28125 33.429688 29.539062 32.824219 C 29.796875 33.191406 30.164062 33.503906 30.605469 33.613281 C 31.21875 33.75 31.785156 33.644531 32.308594 33.300781 C 32.921875 32.871094 33.316406 32.292969 33.496094 31.570312 C 33.542969 31.367188 33.25 31.175781 33.121094 31.359375 Z M 33.121094 31.359375 " fill-opacity="1" fill-rule="nonzero"/></svg>