<svg xmlns="http://www.w3.org/2000/svg" xmlns:xlink="http://www.w3.org/1999/xlink" width="180" zoomAndPan="magnify" viewBox="0 0 135 60" height="80" preserveAspectRatio="xMidYMid meet" version="1.0"><defs><g/><clipPath id="910d27abfd"><path d="M 85.691406 5.074219 L 85.746094 5.074219 L 85.746094 5.113281 L 85.691406 5.113281 Z M 85.691406 5.074219 " clip-rule="nonzero"/></clipPath><clipPath id="4a86c17441"><path d="M 85.742188 5.097656 C 85.640625 5.144531 85.730469 5.074219 85.730469 5.074219 " clip-rule="nonzero"/></clipPath></defs><g fill="#0aa65b" fill-opacity="1"><g transform="translate(0.000000000000021316, 38.538523)"><g><path d="M 30.84375 -29.375 L 30.84375 -23.5 L 24.96875 -23.5 L 16.15625 -14.6875 L 24.96875 -5.875 L 30.84375 -5.875 L 30.84375 0 L 23.796875 0 C 22.960938 0 22.253906 -0.289062 21.671875 -0.875 L 10.796875 -11.75 L 7.34375 -11.75 L 7.34375 0 L 1.46875 0 L 1.46875 -29.375 L 7.34375 -29.375 L 7.34375 -17.625 L 10.796875 -17.625 L 21.671875 -28.5 C 22.253906 -29.082031 22.960938 -29.375 23.796875 -29.375 Z M 30.84375 -29.375 "/></g></g></g><g fill="#0aa65b" fill-opacity="1"><g transform="translate(33.710103, 38.538523)"><g><path d="M 24.96875 0 L 7.34375 0 C 6.269531 0 5.285156 -0.257812 4.390625 -0.78125 C 3.492188 -1.3125 2.78125 -2.023438 2.25 -2.921875 C 1.726562 -3.816406 1.46875 -4.800781 1.46875 -5.875 L 1.46875 -23.5 C 1.46875 -24.570312 1.726562 -25.554688 2.25 -26.453125 C 2.78125 -27.347656 3.492188 -28.054688 4.390625 -28.578125 C 5.285156 -29.109375 6.269531 -29.375 7.34375 -29.375 L 24.96875 -29.375 C 26.039062 -29.375 27.023438 -29.109375 27.921875 -28.578125 C 28.816406 -28.054688 29.523438 -27.347656 30.046875 -26.453125 C 30.578125 -25.554688 30.84375 -24.570312 30.84375 -23.5 L 30.84375 -5.875 C 30.84375 -4.820312 30.578125 -3.847656 30.046875 -2.953125 C 29.523438 -2.054688 28.820312 -1.335938 27.9375 -0.796875 C 27.0625 -0.265625 26.070312 0 24.96875 0 Z M 7.34375 -23.5 L 7.34375 -5.875 L 24.96875 -5.875 L 24.96875 -23.5 Z M 7.34375 -23.5 "/></g></g></g><g fill="#0aa65b" fill-opacity="1"><g transform="translate(67.420206, 38.538523)"><g><path d="M 7.34375 -29.375 L 24.96875 -29.375 C 26.039062 -29.375 27.023438 -29.109375 27.921875 -28.578125 C 28.816406 -28.054688 29.523438 -27.347656 30.046875 -26.453125 C 30.578125 -25.554688 30.84375 -24.570312 30.84375 -23.5 L 30.84375 0 L 24.96875 0 L 24.96875 -11.75 L 7.34375 -11.75 L 7.34375 0 L 1.46875 0 L 1.46875 -23.5 C 1.46875 -24.570312 1.726562 -25.554688 2.25 -26.453125 C 2.78125 -27.347656 3.492188 -28.054688 4.390625 -28.578125 C 5.285156 -29.109375 6.269531 -29.375 7.34375 -29.375 Z M 7.34375 -23.5 L 7.34375 -17.625 L 24.96875 -17.625 L 24.96875 -23.5 Z M 7.34375 -23.5 "/></g></g></g><g fill="#0aa65b" fill-opacity="1"><g transform="translate(101.130309, 38.538523)"><g><path d="M 30.84375 0 L 7.34375 0 C 6.269531 0 5.285156 -0.257812 4.390625 -0.78125 C 3.492188 -1.3125 2.78125 -2.023438 2.25 -2.921875 C 1.726562 -3.816406 1.46875 -4.800781 1.46875 -5.875 L 1.46875 -29.375 L 7.34375 -29.375 L 7.34375 -5.875 L 30.84375 -5.875 Z M 30.84375 0 "/></g></g></g><g fill="#0aa65b" fill-opacity="1"><g transform="translate(0.000000000000021316, 56.167376)"><g><path d="M 5.546875 -5.28125 L 5.546875 -4.234375 L 3.4375 -4.234375 L 3.4375 0 L 2.375 0 L 2.375 -4.234375 L 0.265625 -4.234375 L 0.265625 -5.28125 Z M 5.546875 -5.28125 "/></g></g></g><g fill="#0aa65b" fill-opacity="1"><g transform="translate(5.870449, 56.167376)"><g><path d="M 5.546875 -4.234375 L 5.546875 -3.171875 C 5.546875 -2.972656 5.5 -2.796875 5.40625 -2.640625 C 5.3125 -2.484375 5.179688 -2.351562 5.015625 -2.25 C 4.859375 -2.15625 4.6875 -2.109375 4.5 -2.109375 L 3.4375 -2.109375 L 4.5 -1.0625 L 5.546875 -1.0625 L 5.546875 0 L 4.28125 0 C 4.132812 0 4.007812 -0.0507812 3.90625 -0.15625 L 1.9375 -2.109375 L 1.328125 -2.109375 L 1.328125 0 L 0.265625 0 L 0.265625 -5.28125 L 4.5 -5.28125 C 4.6875 -5.28125 4.859375 -5.234375 5.015625 -5.140625 C 5.179688 -5.046875 5.3125 -4.914062 5.40625 -4.75 C 5.5 -4.59375 5.546875 -4.421875 5.546875 -4.234375 Z M 4.5 -4.234375 L 1.328125 -4.234375 L 1.328125 -3.171875 L 4.5 -3.171875 Z M 4.5 -4.234375 "/></g></g></g><g fill="#0aa65b" fill-opacity="1"><g transform="translate(11.740897, 56.167376)"><g><path d="M 1.328125 -5.28125 L 4.5 -5.28125 C 4.6875 -5.28125 4.859375 -5.234375 5.015625 -5.140625 C 5.179688 -5.046875 5.3125 -4.914062 5.40625 -4.75 C 5.5 -4.59375 5.546875 -4.421875 5.546875 -4.234375 L 5.546875 0 L 4.5 0 L 4.5 -2.109375 L 1.328125 -2.109375 L 1.328125 0 L 0.265625 0 L 0.265625 -4.234375 C 0.265625 -4.421875 0.3125 -4.59375 0.40625 -4.75 C 0.5 -4.914062 0.625 -5.046875 0.78125 -5.140625 C 0.945312 -5.234375 1.128906 -5.28125 1.328125 -5.28125 Z M 1.328125 -4.234375 L 1.328125 -3.171875 L 4.5 -3.171875 L 4.5 -4.234375 Z M 1.328125 -4.234375 "/></g></g></g><g fill="#0aa65b" fill-opacity="1"><g transform="translate(17.611346, 56.167376)"><g><path d="M 1.328125 0 L 0.265625 0 L 0.265625 -4.765625 C 0.265625 -4.910156 0.316406 -5.03125 0.421875 -5.125 C 0.523438 -5.226562 0.648438 -5.28125 0.796875 -5.28125 C 0.941406 -5.28125 1.066406 -5.226562 1.171875 -5.125 L 4.5 -1.796875 L 4.5 -5.28125 L 5.546875 -5.28125 L 5.546875 -0.53125 C 5.546875 -0.382812 5.492188 -0.257812 5.390625 -0.15625 C 5.285156 -0.0507812 5.160156 0 5.015625 0 C 4.878906 0 4.753906 -0.0507812 4.640625 -0.15625 L 1.328125 -3.484375 Z M 1.328125 0 "/></g></g></g><g fill="#0aa65b" fill-opacity="1"><g transform="translate(23.481795, 56.167376)"><g><path d="M 5.546875 -5.28125 L 5.546875 -4.234375 L 1.328125 -4.234375 L 1.328125 -3.171875 L 4.5 -3.171875 C 4.6875 -3.171875 4.859375 -3.125 5.015625 -3.03125 C 5.179688 -2.9375 5.3125 -2.804688 5.40625 -2.640625 C 5.5 -2.484375 5.546875 -2.304688 5.546875 -2.109375 L 5.546875 -1.0625 C 5.546875 -0.863281 5.5 -0.679688 5.40625 -0.515625 C 5.3125 -0.359375 5.179688 -0.234375 5.015625 -0.140625 C 4.859375 -0.046875 4.6875 0 4.5 0 L 0.265625 0 L 0.265625 -1.0625 L 4.5 -1.0625 L 4.5 -2.109375 L 1.328125 -2.109375 C 1.128906 -2.109375 0.945312 -2.15625 0.78125 -2.25 C 0.625 -2.351562 0.5 -2.484375 0.40625 -2.640625 C 0.3125 -2.796875 0.265625 -2.972656 0.265625 -3.171875 L 0.265625 -4.234375 C 0.265625 -4.421875 0.3125 -4.59375 0.40625 -4.75 C 0.5 -4.914062 0.625 -5.046875 0.78125 -5.140625 C 0.945312 -5.234375 1.128906 -5.28125 1.328125 -5.28125 Z M 5.546875 -5.28125 "/></g></g></g><g fill="#0aa65b" fill-opacity="1"><g transform="translate(29.352244, 56.167376)"><g><path d="M 4.5 -5.28125 C 4.6875 -5.28125 4.859375 -5.234375 5.015625 -5.140625 C 5.179688 -5.046875 5.3125 -4.914062 5.40625 -4.75 C 5.5 -4.59375 5.546875 -4.421875 5.546875 -4.234375 L 5.546875 -3.171875 C 5.546875 -2.972656 5.5 -2.796875 5.40625 -2.640625 C 5.3125 -2.484375 5.179688 -2.351562 5.015625 -2.25 C 4.859375 -2.15625 4.6875 -2.109375 4.5 -2.109375 L 1.328125 -2.109375 L 1.328125 0 L 0.265625 0 L 0.265625 -5.28125 Z M 1.328125 -3.171875 L 4.5 -3.171875 L 4.5 -4.234375 L 1.328125 -4.234375 Z M 1.328125 -3.171875 "/></g></g></g><g fill="#0aa65b" fill-opacity="1"><g transform="translate(35.222693, 56.167376)"><g><path d="M 4.5 0 L 1.328125 0 C 1.128906 0 0.945312 -0.046875 0.78125 -0.140625 C 0.625 -0.234375 0.5 -0.359375 0.40625 -0.515625 C 0.3125 -0.679688 0.265625 -0.863281 0.265625 -1.0625 L 0.265625 -4.234375 C 0.265625 -4.421875 0.3125 -4.59375 0.40625 -4.75 C 0.5 -4.914062 0.625 -5.046875 0.78125 -5.140625 C 0.945312 -5.234375 1.128906 -5.28125 1.328125 -5.28125 L 4.5 -5.28125 C 4.6875 -5.28125 4.859375 -5.234375 5.015625 -5.140625 C 5.179688 -5.046875 5.3125 -4.914062 5.40625 -4.75 C 5.5 -4.59375 5.546875 -4.421875 5.546875 -4.234375 L 5.546875 -1.0625 C 5.546875 -0.863281 5.5 -0.6875 5.40625 -0.53125 C 5.3125 -0.375 5.1875 -0.242188 5.03125 -0.140625 C 4.875 -0.046875 4.695312 0 4.5 0 Z M 1.328125 -4.234375 L 1.328125 -1.0625 L 4.5 -1.0625 L 4.5 -4.234375 Z M 1.328125 -4.234375 "/></g></g></g><g fill="#0aa65b" fill-opacity="1"><g transform="translate(41.09314, 56.167376)"><g><path d="M 5.546875 -4.234375 L 5.546875 -3.171875 C 5.546875 -2.972656 5.5 -2.796875 5.40625 -2.640625 C 5.3125 -2.484375 5.179688 -2.351562 5.015625 -2.25 C 4.859375 -2.15625 4.6875 -2.109375 4.5 -2.109375 L 3.4375 -2.109375 L 4.5 -1.0625 L 5.546875 -1.0625 L 5.546875 0 L 4.28125 0 C 4.132812 0 4.007812 -0.0507812 3.90625 -0.15625 L 1.9375 -2.109375 L 1.328125 -2.109375 L 1.328125 0 L 0.265625 0 L 0.265625 -5.28125 L 4.5 -5.28125 C 4.6875 -5.28125 4.859375 -5.234375 5.015625 -5.140625 C 5.179688 -5.046875 5.3125 -4.914062 5.40625 -4.75 C 5.5 -4.59375 5.546875 -4.421875 5.546875 -4.234375 Z M 4.5 -4.234375 L 1.328125 -4.234375 L 1.328125 -3.171875 L 4.5 -3.171875 Z M 4.5 -4.234375 "/></g></g></g><g fill="#0aa65b" fill-opacity="1"><g transform="translate(46.963589, 56.167376)"><g><path d="M 5.546875 -5.28125 L 5.546875 -4.234375 L 3.4375 -4.234375 L 3.4375 0 L 2.375 0 L 2.375 -4.234375 L 0.265625 -4.234375 L 0.265625 -5.28125 Z M 5.546875 -5.28125 "/></g></g></g><g fill="#0aa65b" fill-opacity="1"><g transform="translate(52.834039, 56.167376)"><g><path d="M 5.546875 -5.28125 L 5.546875 -4.234375 L 1.328125 -4.234375 L 1.328125 -3.171875 L 5.546875 -3.171875 L 5.546875 -2.109375 L 1.328125 -2.109375 L 1.328125 -1.0625 L 5.546875 -1.0625 L 5.546875 0 L 1.328125 0 C 1.128906 0 0.945312 -0.046875 0.78125 -0.140625 C 0.625 -0.234375 0.5 -0.359375 0.40625 -0.515625 C 0.3125 -0.679688 0.265625 -0.863281 0.265625 -1.0625 L 0.265625 -4.234375 C 0.265625 -4.421875 0.3125 -4.59375 0.40625 -4.75 C 0.5 -4.914062 0.625 -5.046875 0.78125 -5.140625 C 0.945312 -5.234375 1.128906 -5.28125 1.328125 -5.28125 Z M 5.546875 -5.28125 "/></g></g></g><g fill="#0aa65b" fill-opacity="1"><g transform="translate(58.704488, 56.167376)"><g/></g></g><g fill="#0aa65b" fill-opacity="1"><g transform="translate(61.66616, 56.167376)"><g><path d="M 4.5 0 L 0.265625 0 L 0.265625 -5.28125 L 4.5 -5.28125 C 4.6875 -5.28125 4.859375 -5.234375 5.015625 -5.140625 C 5.179688 -5.046875 5.3125 -4.914062 5.40625 -4.75 C 5.5 -4.59375 5.546875 -4.421875 5.546875 -4.234375 L 5.546875 -1.0625 C 5.546875 -0.863281 5.5 -0.679688 5.40625 -0.515625 C 5.3125 -0.359375 5.179688 -0.234375 5.015625 -0.140625 C 4.859375 -0.046875 4.6875 0 4.5 0 Z M 1.328125 -4.234375 L 1.328125 -1.0625 L 4.5 -1.0625 L 4.5 -4.234375 Z M 1.328125 -4.234375 "/></g></g></g><g fill="#0aa65b" fill-opacity="1"><g transform="translate(67.536609, 56.167376)"><g><path d="M 5.546875 -5.28125 L 5.546875 -4.234375 L 1.328125 -4.234375 L 1.328125 -3.171875 L 5.546875 -3.171875 L 5.546875 -2.109375 L 1.328125 -2.109375 L 1.328125 -1.0625 L 5.546875 -1.0625 L 5.546875 0 L 1.328125 0 C 1.128906 0 0.945312 -0.046875 0.78125 -0.140625 C 0.625 -0.234375 0.5 -0.359375 0.40625 -0.515625 C 0.3125 -0.679688 0.265625 -0.863281 0.265625 -1.0625 L 0.265625 -4.234375 C 0.265625 -4.421875 0.3125 -4.59375 0.40625 -4.75 C 0.5 -4.914062 0.625 -5.046875 0.78125 -5.140625 C 0.945312 -5.234375 1.128906 -5.28125 1.328125 -5.28125 Z M 5.546875 -5.28125 "/></g></g></g><g fill="#0aa65b" fill-opacity="1"><g transform="translate(73.407058, 56.167376)"><g/></g></g><g fill="#0aa65b" fill-opacity="1"><g transform="translate(76.368726, 56.167376)"><g><path d="M 4.5 -5.28125 C 4.6875 -5.28125 4.859375 -5.234375 5.015625 -5.140625 C 5.179688 -5.046875 5.3125 -4.914062 5.40625 -4.75 C 5.5 -4.59375 5.546875 -4.421875 5.546875 -4.234375 L 5.546875 -3.171875 C 5.546875 -2.972656 5.5 -2.796875 5.40625 -2.640625 C 5.3125 -2.484375 5.179688 -2.351562 5.015625 -2.25 C 4.859375 -2.15625 4.6875 -2.109375 4.5 -2.109375 L 1.328125 -2.109375 L 1.328125 0 L 0.265625 0 L 0.265625 -5.28125 Z M 1.328125 -3.171875 L 4.5 -3.171875 L 4.5 -4.234375 L 1.328125 -4.234375 Z M 1.328125 -3.171875 "/></g></g></g><g fill="#0aa65b" fill-opacity="1"><g transform="translate(82.239171, 56.167376)"><g><path d="M 1.328125 -5.28125 L 4.5 -5.28125 C 4.6875 -5.28125 4.859375 -5.234375 5.015625 -5.140625 C 5.179688 -5.046875 5.3125 -4.914062 5.40625 -4.75 C 5.5 -4.59375 5.546875 -4.421875 5.546875 -4.234375 L 5.546875 0 L 4.5 0 L 4.5 -2.109375 L 1.328125 -2.109375 L 1.328125 0 L 0.265625 0 L 0.265625 -4.234375 C 0.265625 -4.421875 0.3125 -4.59375 0.40625 -4.75 C 0.5 -4.914062 0.625 -5.046875 0.78125 -5.140625 C 0.945312 -5.234375 1.128906 -5.28125 1.328125 -5.28125 Z M 1.328125 -4.234375 L 1.328125 -3.171875 L 4.5 -3.171875 L 4.5 -4.234375 Z M 1.328125 -4.234375 "/></g></g></g><g fill="#0aa65b" fill-opacity="1"><g transform="translate(88.109616, 56.167376)"><g><path d="M 5.546875 -5.28125 L 5.546875 -4.234375 L 1.328125 -4.234375 L 1.328125 -3.171875 L 4.5 -3.171875 C 4.6875 -3.171875 4.859375 -3.125 5.015625 -3.03125 C 5.179688 -2.9375 5.3125 -2.804688 5.40625 -2.640625 C 5.5 -2.484375 5.546875 -2.304688 5.546875 -2.109375 L 5.546875 -1.0625 C 5.546875 -0.863281 5.5 -0.679688 5.40625 -0.515625 C 5.3125 -0.359375 5.179688 -0.234375 5.015625 -0.140625 C 4.859375 -0.046875 4.6875 0 4.5 0 L 0.265625 0 L 0.265625 -1.0625 L 4.5 -1.0625 L 4.5 -2.109375 L 1.328125 -2.109375 C 1.128906 -2.109375 0.945312 -2.15625 0.78125 -2.25 C 0.625 -2.351562 0.5 -2.484375 0.40625 -2.640625 C 0.3125 -2.796875 0.265625 -2.972656 0.265625 -3.171875 L 0.265625 -4.234375 C 0.265625 -4.421875 0.3125 -4.59375 0.40625 -4.75 C 0.5 -4.914062 0.625 -5.046875 0.78125 -5.140625 C 0.945312 -5.234375 1.128906 -5.28125 1.328125 -5.28125 Z M 5.546875 -5.28125 "/></g></g></g><g fill="#0aa65b" fill-opacity="1"><g transform="translate(93.980061, 56.167376)"><g><path d="M 1.328125 -5.28125 L 4.5 -5.28125 C 4.6875 -5.28125 4.859375 -5.234375 5.015625 -5.140625 C 5.179688 -5.046875 5.3125 -4.914062 5.40625 -4.75 C 5.5 -4.59375 5.546875 -4.421875 5.546875 -4.234375 L 5.546875 0 L 4.5 0 L 4.5 -2.109375 L 1.328125 -2.109375 L 1.328125 0 L 0.265625 0 L 0.265625 -4.234375 C 0.265625 -4.421875 0.3125 -4.59375 0.40625 -4.75 C 0.5 -4.914062 0.625 -5.046875 0.78125 -5.140625 C 0.945312 -5.234375 1.128906 -5.28125 1.328125 -5.28125 Z M 1.328125 -4.234375 L 1.328125 -3.171875 L 4.5 -3.171875 L 4.5 -4.234375 Z M 1.328125 -4.234375 "/></g></g></g><g fill="#0aa65b" fill-opacity="1"><g transform="translate(99.850506, 56.167376)"><g><path d="M 4.5 0 L 1.328125 0 C 1.128906 0 0.945312 -0.046875 0.78125 -0.140625 C 0.625 -0.234375 0.5 -0.359375 0.40625 -0.515625 C 0.3125 -0.679688 0.265625 -0.863281 0.265625 -1.0625 L 0.265625 -2.109375 L 1.328125 -2.109375 L 1.328125 -1.0625 L 4.5 -1.0625 L 4.5 -4.234375 L 2.375 -4.234375 L 2.375 -5.28125 L 5.546875 -5.28125 L 5.546875 -1.0625 C 5.546875 -0.863281 5.5 -0.6875 5.40625 -0.53125 C 5.3125 -0.375 5.1875 -0.242188 5.03125 -0.140625 C 4.875 -0.046875 4.695312 0 4.5 0 Z M 4.5 0 "/></g></g></g><g fill="#0aa65b" fill-opacity="1"><g transform="translate(105.720951, 56.167376)"><g><path d="M 5.546875 -5.28125 L 5.546875 -4.234375 L 1.328125 -4.234375 L 1.328125 -3.171875 L 5.546875 -3.171875 L 5.546875 -2.109375 L 1.328125 -2.109375 L 1.328125 -1.0625 L 5.546875 -1.0625 L 5.546875 0 L 1.328125 0 C 1.128906 0 0.945312 -0.046875 0.78125 -0.140625 C 0.625 -0.234375 0.5 -0.359375 0.40625 -0.515625 C 0.3125 -0.679688 0.265625 -0.863281 0.265625 -1.0625 L 0.265625 -4.234375 C 0.265625 -4.421875 0.3125 -4.59375 0.40625 -4.75 C 0.5 -4.914062 0.625 -5.046875 0.78125 -5.140625 C 0.945312 -5.234375 1.128906 -5.28125 1.328125 -5.28125 Z M 5.546875 -5.28125 "/></g></g></g><g fill="#0aa65b" fill-opacity="1"><g transform="translate(111.591396, 56.167376)"><g><path d="M 5.546875 -4.234375 L 5.546875 -3.171875 C 5.546875 -2.972656 5.5 -2.796875 5.40625 -2.640625 C 5.3125 -2.484375 5.179688 -2.351562 5.015625 -2.25 C 4.859375 -2.15625 4.6875 -2.109375 4.5 -2.109375 L 3.4375 -2.109375 L 4.5 -1.0625 L 5.546875 -1.0625 L 5.546875 0 L 4.28125 0 C 4.132812 0 4.007812 -0.0507812 3.90625 -0.15625 L 1.9375 -2.109375 L 1.328125 -2.109375 L 1.328125 0 L 0.265625 0 L 0.265625 -5.28125 L 4.5 -5.28125 C 4.6875 -5.28125 4.859375 -5.234375 5.015625 -5.140625 C 5.179688 -5.046875 5.3125 -4.914062 5.40625 -4.75 C 5.5 -4.59375 5.546875 -4.421875 5.546875 -4.234375 Z M 4.5 -4.234375 L 1.328125 -4.234375 L 1.328125 -3.171875 L 4.5 -3.171875 Z M 4.5 -4.234375 "/></g></g></g><g fill="#0aa65b" fill-opacity="1"><g transform="translate(117.461841, 56.167376)"><g><path d="M 4.5 0 L 1.328125 0 C 1.128906 0 0.945312 -0.046875 0.78125 -0.140625 C 0.625 -0.234375 0.5 -0.359375 0.40625 -0.515625 C 0.3125 -0.679688 0.265625 -0.863281 0.265625 -1.0625 L 0.265625 -4.234375 C 0.265625 -4.421875 0.3125 -4.59375 0.40625 -4.75 C 0.5 -4.914062 0.625 -5.046875 0.78125 -5.140625 C 0.945312 -5.234375 1.128906 -5.28125 1.328125 -5.28125 L 4.5 -5.28125 C 4.6875 -5.28125 4.859375 -5.234375 5.015625 -5.140625 C 5.179688 -5.046875 5.3125 -4.914062 5.40625 -4.75 C 5.5 -4.59375 5.546875 -4.421875 5.546875 -4.234375 L 5.546875 -1.0625 C 5.546875 -0.863281 5.5 -0.6875 5.40625 -0.53125 C 5.3125 -0.375 5.1875 -0.242188 5.03125 -0.140625 C 4.875 -0.046875 4.695312 0 4.5 0 Z M 1.328125 -4.234375 L 1.328125 -1.0625 L 4.5 -1.0625 L 4.5 -4.234375 Z M 1.328125 -4.234375 "/></g></g></g><g fill="#0aa65b" fill-opacity="1"><g transform="translate(123.332286, 56.167376)"><g><path d="M 5.546875 -5.28125 L 5.546875 -4.234375 L 1.328125 -4.234375 L 1.328125 -3.171875 L 4.5 -3.171875 C 4.6875 -3.171875 4.859375 -3.125 5.015625 -3.03125 C 5.179688 -2.9375 5.3125 -2.804688 5.40625 -2.640625 C 5.5 -2.484375 5.546875 -2.304688 5.546875 -2.109375 L 5.546875 -1.0625 C 5.546875 -0.863281 5.5 -0.679688 5.40625 -0.515625 C 5.3125 -0.359375 5.179688 -0.234375 5.015625 -0.140625 C 4.859375 -0.046875 4.6875 0 4.5 0 L 0.265625 0 L 0.265625 -1.0625 L 4.5 -1.0625 L 4.5 -2.109375 L 1.328125 -2.109375 C 1.128906 -2.109375 0.945312 -2.15625 0.78125 -2.25 C 0.625 -2.351562 0.5 -2.484375 0.40625 -2.640625 C 0.3125 -2.796875 0.265625 -2.972656 0.265625 -3.171875 L 0.265625 -4.234375 C 0.265625 -4.421875 0.3125 -4.59375 0.40625 -4.75 C 0.5 -4.914062 0.625 -5.046875 0.78125 -5.140625 C 0.945312 -5.234375 1.128906 -5.28125 1.328125 -5.28125 Z M 5.546875 -5.28125 "/></g></g></g><g clip-path="url(#910d27abfd)"><g clip-path="url(#4a86c17441)"><path fill="#ffffff" d="M 85.191406 4.625 L 86.203125 4.625 L 86.203125 5.605469 L 85.191406 5.605469 Z M 85.191406 4.625 " fill-opacity="1" fill-rule="nonzero"/></g></g></svg>